<?xml version="1.0" encoding="UTF-8"?><svg xmlns="http://www.w3.org/2000/svg" viewBox="0 0 81.19 68"><defs><style>.d{fill:#f0d7a5;}</style></defs><g id="a"/><g id="b"><g id="c"><path class="d" d="M76.26,50h-13.4c-.9,0-1.7,.6-1.9,1.5l-2.9,14.1c-.2,1.2,.7,2.3,1.9,2.3h19.3c1.2,0,2.1-1.1,1.9-2.3l-2.9-14.1c-.3-.9-1.1-1.5-2-1.5Z"/><path class="d" d="M47.26,50h-13.4c-.9,0-1.7,.6-1.9,1.5l-2.9,14.1c-.2,1.2,.7,2.3,1.9,2.3h19.3c1.2,0,2.1-1.1,1.9-2.3l-2.9-14.1c-.3-.9-1.1-1.5-2-1.5Z"/><path class="d" d="M47.26,25h-13.4c-.9,0-1.7,.6-1.9,1.5l-2.9,14.1c-.2,1.2,.7,2.3,1.9,2.3h19.3c1.2,0,2.1-1.1,1.9-2.3l-2.9-14.1c-.3-.9-1.1-1.5-2-1.5Z"/><path class="d" d="M18.26,50H4.86c-.9,0-1.7,.6-1.9,1.5L.06,65.7c-.3,1.2,.6,2.3,1.9,2.3H21.26c1.2,0,2.1-1.1,1.9-2.3l-2.9-14.1c-.3-1-1.1-1.6-2-1.6Z"/><path class="d" d="M76.26,25h-13.4c-.9,0-1.7,.6-1.9,1.5l-2.9,14.1c-.2,1.2,.7,2.3,1.9,2.3h19.3c1.2,0,2.1-1.1,1.9-2.3l-2.9-14.1c-.3-.9-1.1-1.5-2-1.5Z"/><path class="d" d="M76.26,0h-13.4c-.9,0-1.7,.6-1.9,1.5l-2.9,14.1c-.2,1.2,.7,2.3,1.9,2.3h19.3c1.2,0,2.1-1.1,1.9-2.3l-3-14.1c-.2-.9-1-1.5-1.9-1.5Z"/></g></g></svg>